<svg width="24" height="24" viewBox="0 0 24 24" fill="none" xmlns="http://www.w3.org/2000/svg">
<mask id="path-1-inside-1_737_32" fill="white">
<path fill-rule="evenodd" clip-rule="evenodd" d="M8 1C4.13401 1 1 4.13401 1 8V16C1 19.866 4.13401 23 8 23H8.66026H16C19.866 23 23 19.866 23 16V8C23 4.13401 19.866 1 16 1H8ZM8.66026 23L11.8417 22.9999V15.2454H14.4952L14.8925 12.2233H11.8417V10.2938C11.8417 9.4189 12.0894 8.82258 13.3686 8.82258L15 8.82184V6.11895C14.7177 6.08226 13.7494 6 12.6228 6C10.2707 6 8.66034 7.40829 8.66034 9.99469V12.2234H6V15.2455H8.66026V23Z"/>
</mask>
<path fill-rule="evenodd" clip-rule="evenodd" d="M8 1C4.13401 1 1 4.13401 1 8V16C1 19.866 4.13401 23 8 23H8.66026H16C19.866 23 23 19.866 23 16V8C23 4.13401 19.866 1 16 1H8ZM8.66026 23L11.8417 22.9999V15.2454H14.4952L14.8925 12.2233H11.8417V10.2938C11.8417 9.4189 12.0894 8.82258 13.3686 8.82258L15 8.82184V6.11895C14.7177 6.08226 13.7494 6 12.6228 6C10.2707 6 8.66034 7.40829 8.66034 9.99469V12.2234H6V15.2455H8.66026V23Z" fill="white"/>
<path d="M11.8417 22.9999L11.8418 24.9999L13.8417 24.9999V22.9999H11.8417ZM11.8417 15.2454V13.2454H9.84172V15.2454H11.8417ZM14.4952 15.2454V17.2454H16.2495L16.4781 15.5061L14.4952 15.2454ZM14.8925 12.2233L16.8754 12.484L17.1726 10.2233H14.8925V12.2233ZM11.8417 12.2233H9.84172V14.2233H11.8417V12.2233ZM13.3686 8.82258V10.8226H13.3695L13.3686 8.82258ZM15 8.82184L15.0009 10.8218L17 10.8209V8.82184H15ZM15 6.11895H17V4.36212L15.2578 4.13564L15 6.11895ZM8.66034 12.2234V14.2234H10.6603V12.2234H8.66034ZM6 12.2234V10.2234H4V12.2234H6ZM6 15.2455H4V17.2455H6V15.2455ZM8.66026 15.2455H10.6603V13.2455H8.66026V15.2455ZM3 8C3 5.23858 5.23858 3 8 3V-1C3.02944 -1 -1 3.02944 -1 8H3ZM3 16V8H-1V16H3ZM8 21C5.23858 21 3 18.7614 3 16H-1C-1 20.9706 3.02944 25 8 25V21ZM8.66026 21H8V25H8.66026V21ZM16 21H8.66026V25H16V21ZM21 16C21 18.7614 18.7614 21 16 21V25C20.9706 25 25 20.9706 25 16H21ZM21 8V16H25V8H21ZM16 3C18.7614 3 21 5.23858 21 8H25C25 3.02944 20.9706 -1 16 -1V3ZM8 3H16V-1H8V3ZM8.66031 25L11.8418 24.9999L11.8417 20.9999L8.66021 21L8.66031 25ZM13.8417 22.9999V15.2454H9.84172V22.9999H13.8417ZM11.8417 17.2454H14.4952V13.2454H11.8417V17.2454ZM16.4781 15.5061L16.8754 12.484L12.9095 11.9627L12.5123 14.9847L16.4781 15.5061ZM14.8925 10.2233H11.8417V14.2233H14.8925V10.2233ZM13.8417 12.2233V10.2938H9.84172V12.2233H13.8417ZM13.8417 10.2938C13.8417 10.1556 13.8531 10.129 13.8445 10.1643C13.8329 10.2124 13.7862 10.366 13.6431 10.5327C13.4926 10.708 13.3274 10.791 13.2385 10.8215C13.1707 10.8447 13.1921 10.8226 13.3686 10.8226V6.82258C12.4731 6.82258 11.3807 7.02702 10.6078 7.92751C9.89187 8.76167 9.84172 9.76556 9.84172 10.2938H13.8417ZM13.3695 10.8226L15.0009 10.8218L14.9991 6.82184L13.3677 6.82258L13.3695 10.8226ZM17 8.82184V6.11895H13V8.82184H17ZM15.2578 4.13564C14.8784 4.08631 13.823 4 12.6228 4V8C13.6758 8 14.5571 8.0782 14.7422 8.10226L15.2578 4.13564ZM12.6228 4C11.0516 4 9.51787 4.47605 8.36734 5.59153C7.20592 6.71757 6.66034 8.27671 6.66034 9.99469H10.6603C10.6603 9.12627 10.9199 8.68807 11.1517 8.46336C11.3943 8.2281 11.8418 8 12.6228 8V4ZM6.66034 9.99469V12.2234H10.6603V9.99469H6.66034ZM8.66034 10.2234H6V14.2234H8.66034V10.2234ZM4 12.2234V15.2455H8V12.2234H4ZM6 17.2455H8.66026V13.2455H6V17.2455ZM6.66026 15.2455V23H10.6603V15.2455H6.66026Z" fill="white" mask="url(#path-1-inside-1_737_32)"/>
</svg>
