<svg width="24" height="24" viewBox="0 0 24 24" fill="none" xmlns="http://www.w3.org/2000/svg">
<g id="Icon/Instagram">
<path id="Subtract" d="M14.5 12C14.5 13.3807 13.3807 14.5 12 14.5C10.6193 14.5 9.5 13.3807 9.5 12C9.5 10.6193 10.6193 9.5 12 9.5C13.3807 9.5 14.5 10.6193 14.5 12ZM2 8C2 4.68629 4.68629 2 8 2H16C19.3137 2 22 4.68629 22 8V16C22 19.3137 19.3137 22 16 22H8C4.68629 22 2 19.3137 2 16V8ZM12 18.5C15.5899 18.5 18.5 15.5899 18.5 12C18.5 10.6446 18.0851 9.38608 17.3755 8.34452C17.5621 8.39162 17.7574 8.41665 17.9586 8.41665C19.2703 8.41665 20.3336 7.35332 20.3336 6.04165C20.3336 4.72997 19.2703 3.66665 17.9586 3.66665C16.647 3.66665 15.5836 4.72997 15.5836 6.04165C15.5836 6.24282 15.6087 6.43816 15.6557 6.62471C14.6141 5.91493 13.3555 5.5 12 5.5C8.41015 5.5 5.5 8.41015 5.5 12C5.5 15.5899 8.41015 18.5 12 18.5Z" fill="white" stroke="white" stroke-width="2"/>
</g>
</svg>
