<svg width="41" height="41" viewBox="0 0 41 41" fill="none" xmlns="http://www.w3.org/2000/svg">
<path d="M3.63497 13.9292C3.46276 11.4109 3.37665 10.1518 3.87514 9.45452C4.30893 8.84776 5.0051 8.45947 5.77122 8.39699C6.65161 8.32519 7.75627 9.01624 9.9656 10.3983L10.7038 10.8601C11.7099 11.4896 12.213 11.8043 12.7428 11.889C13.2102 11.9638 13.6899 11.9132 14.1288 11.7428C14.6265 11.5496 15.0457 11.1376 15.8839 10.3135L17.2299 8.99034C18.2551 7.98256 18.7676 7.47866 19.362 7.29055C19.8846 7.12515 20.4491 7.12515 20.9716 7.29055C21.5659 7.47866 22.0786 7.98256 23.1037 8.99034L24.4497 10.3135C25.288 11.1376 25.707 11.5496 26.2048 11.7428C26.6438 11.9132 27.1235 11.9638 27.5907 11.889C28.1207 11.8043 28.6237 11.4896 29.6298 10.8601L30.368 10.3984C32.5773 9.01624 33.682 8.32519 34.5624 8.39699C35.3285 8.45947 36.0247 8.84776 36.4585 9.45452C36.9569 10.1518 36.8708 11.4109 36.6986 13.9292L36.0049 24.0745C35.7698 27.5114 35.6523 29.2298 34.8772 30.533C34.1948 31.6804 33.1643 32.6029 31.922 33.1789C30.5107 33.8332 28.709 33.8332 25.1052 33.8332H15.2284C11.6247 33.8332 9.82285 33.8332 8.41168 33.1789C7.1693 32.6029 6.13889 31.6804 5.45646 30.533C4.68132 29.2298 4.56381 27.5114 4.32877 24.0745L3.63497 13.9292Z" fill="#AD61FF"/>
</svg>
