<svg width="41" height="41" viewBox="0 0 41 41" fill="none" xmlns="http://www.w3.org/2000/svg">
<path d="M5.69457 16.9847C3.21298 15.6728 3.21298 11.9941 5.69457 10.6823L17.1927 4.60429C19.1059 3.59298 21.3664 3.57596 23.2935 4.55836L35.2613 10.6594C37.8018 11.9545 37.8018 15.7125 35.2613 17.0076L23.2935 23.1086C21.3664 24.091 19.1059 24.0741 17.1927 23.0627L5.69457 16.9847Z" fill="#00C1FF"/>
<path d="M8.83337 22.1668V27.3948C8.83337 28.5243 8.83337 29.0889 8.90716 29.6032C9.19794 31.6298 10.3269 33.4198 11.9938 34.4975C12.4168 34.7711 12.9132 34.9935 13.9061 35.4384L13.9139 35.4419C15.2261 36.0298 15.8834 36.3243 16.5411 36.5381C19.1195 37.3764 21.8806 37.3764 24.459 36.5381C25.1171 36.3242 25.775 36.0294 27.0891 35.4407L27.0941 35.4384C28.0868 34.9935 28.5832 34.7711 29.0062 34.4975C30.6732 33.4198 31.8021 31.6298 32.093 29.6032C32.1667 29.0889 32.1667 28.5243 32.1667 27.3948V22.3392L23.6221 26.7577C21.7595 27.7208 19.5738 27.7208 17.7112 26.7577L8.83337 22.1668Z" fill="#00C1FF"/>
</svg>
