<svg width="41" height="41" viewBox="0 0 41 41" fill="none" xmlns="http://www.w3.org/2000/svg">
<path d="M7.5 37.1668C6.39543 37.1668 5.5 36.2714 5.5 35.1668V16.4558C5.5 15.5052 5.95049 14.6109 6.71432 14.0451L18.7143 5.15623C19.7751 4.37045 21.2249 4.37045 22.2857 5.15622L34.2857 14.0451C35.0495 14.6109 35.5 15.5052 35.5 16.4558V35.1668C35.5 36.2714 34.6046 37.1668 33.5 37.1668H26.6667C25.5621 37.1668 24.6667 36.2714 24.6667 35.1668V25.6668C24.6667 25.1145 24.219 24.6668 23.6667 24.6668H17.3333C16.781 24.6668 16.3333 25.1145 16.3333 25.6668V35.1668C16.3333 36.2714 15.4379 37.1668 14.3333 37.1668H7.5Z" fill="#4DD252"/>
</svg>
