<svg width="41" height="41" viewBox="0 0 41 41" fill="none" xmlns="http://www.w3.org/2000/svg">
<path d="M26.6091 18.6789C26.619 18.5625 26.6292 18.4409 26.6398 18.3134L27.2845 10.5867C27.551 7.39569 27.6842 5.8002 27.1087 4.98776C26.6093 4.28242 25.8051 3.85453 24.9402 3.83391C23.944 3.81016 22.6918 4.81032 20.1877 6.81062L10.5145 14.5374C7.52585 16.9247 6.03152 18.1184 5.86663 19.1652C5.72393 20.0712 6.04611 20.9884 6.72442 21.6069C7.50811 22.3213 9.42177 22.3213 13.2491 22.3213H15.0577C15.0478 22.4377 15.0376 22.5593 15.027 22.6868L14.3821 30.4136C14.1158 33.6045 13.9826 35.2001 14.558 36.0125C15.0575 36.7179 15.8617 37.1458 16.7266 37.1664C17.7228 37.1901 18.9749 36.1899 21.4791 34.1897L31.1523 26.4629C34.1408 24.0757 35.6352 22.8819 35.8001 21.8352C35.9429 20.9292 35.6206 20.012 34.9423 19.3936C34.1587 18.6789 32.245 18.6789 28.4176 18.6789H26.6091Z" fill="#FF9E00"/>
</svg>
