<svg width="40" height="40" viewBox="0 0 40 40" fill="none" xmlns="http://www.w3.org/2000/svg">
<path d="M25.7758 18.1788C25.7856 18.0624 25.7958 17.9408 25.8064 17.8133L26.4512 10.0865C26.7177 6.89557 26.8508 5.30008 26.2753 4.48764C25.7759 3.78229 24.9718 3.3544 24.1068 3.33379C23.1106 3.31004 21.8584 4.3102 19.3543 6.3105L9.68112 14.0373C6.69248 16.4246 5.19815 17.6182 5.03326 18.6651C4.89055 19.5711 5.21274 20.4883 5.89105 21.1067C6.67473 21.8212 8.5884 21.8212 12.4157 21.8212H14.2243C14.2144 21.9376 14.2043 22.0592 14.1936 22.1867L13.5487 29.9135C13.2824 33.1044 13.1493 34.7 13.7246 35.5124C14.2241 36.2177 15.0283 36.6457 15.8932 36.6663C16.8894 36.69 18.1416 35.6898 20.6457 33.6896L30.3189 25.9628C33.3074 23.5755 34.8018 22.3818 34.9667 21.3351C35.1095 20.4291 34.7872 19.5119 34.1089 18.8934C33.3253 18.1788 31.4116 18.1788 27.5842 18.1788H25.7758Z" fill="#00C1FF"/>
</svg>
