<svg width="24" height="24" viewBox="0 0 24 24" fill="none" xmlns="http://www.w3.org/2000/svg">
<path d="M21.2929 21.2929C20.9024 21.6834 20.2693 21.6834 19.8788 21.2929L17.5303 18.9444C17.1094 19.2138 16.6633 19.4453 16.1919 19.6389C16.1269 19.6656 16.0616 19.6916 15.9959 19.7168C15.3624 19.9606 14.7273 19.4544 14.7273 18.7756C14.7273 18.3325 15.0062 17.9367 15.4217 17.7828C15.649 17.6987 15.8636 17.5976 16.0657 17.4798L12.7071 14.1212V16.9595C12.7071 17.8504 11.6299 18.2966 11 17.6666L7.65657 14.3232H5.61616C4.51159 14.3232 3.61616 13.4278 3.61616 12.3232V10.2626C3.61616 9.15806 4.51159 8.26263 5.61616 8.26263H6.84848L2.70707 4.12121C2.31657 3.73071 2.31657 3.09758 2.70707 2.70707C3.09757 2.31657 3.73071 2.31657 4.12121 2.70707L21.2929 19.8788C21.6834 20.2693 21.6834 20.9024 21.2929 21.2929ZM20.3838 16.1414L18.9192 14.6768C19.2054 14.1549 19.42 13.6077 19.5631 13.0354C19.7062 12.463 19.7778 11.8737 19.7778 11.2677C19.7778 9.68519 19.3148 8.27104 18.3889 7.02525C17.6177 5.9876 16.642 5.23026 15.462 4.75323C15.0351 4.58065 14.7273 4.18302 14.7273 3.72257C14.7273 3.05975 15.3453 2.56503 15.967 2.79469C17.4983 3.36031 18.7854 4.2949 19.8283 5.59848C21.1414 7.2399 21.798 9.12963 21.798 11.2677C21.798 12.1599 21.6759 13.0185 21.4318 13.8434C21.1877 14.6684 20.8384 15.4343 20.3838 16.1414ZM17 12.7576L14.7273 10.4848V8.77424C14.7273 8.04211 15.495 7.57875 16.0022 8.10672C16.2206 8.33415 16.4144 8.58814 16.5833 8.86869C17.0295 9.60943 17.2525 10.4175 17.2525 11.2929C17.2525 11.5455 17.2315 11.7938 17.1894 12.0379C17.1473 12.282 17.0842 12.5219 17 12.7576ZM12.7071 8.46465L10.0808 5.83838L11 4.91923C11.6299 4.28926 12.7071 4.73543 12.7071 5.62633V8.46465Z" fill="#080808"/>
</svg>
